<svg id="Grupo_52" data-name="Grupo 52" xmlns="http://www.w3.org/2000/svg" width="105.3" height="121.5" viewBox="0 0 105.3 121.5">
  <g id="Grupo_51" data-name="Grupo 51">
    <g id="Grupo_44" data-name="Grupo 44">
      <g id="Grupo_43" data-name="Grupo 43">
        <path id="Trazado_108" data-name="Trazado 108" d="M28.2,84.5c6.3-8.3,13-16.1,20-23.7a4.62,4.62,0,0,1,.7-.7C41.6,54,34.6,47.7,27.8,41c-4-4-7.9-8-11.7-12.2-1.5-1.7-3-3.4-4.5-5.2L0,30.4V91.1l16.9,9.7c.8-1.2,1.5-2.4,2.3-3.6C22,92.9,25.1,88.7,28.2,84.5Z" fill="#5abe93"/>
      </g>
    </g>
    <g id="Grupo_46" data-name="Grupo 46">
      <g id="Grupo_45" data-name="Grupo 45">
        <path id="Trazado_109" data-name="Trazado 109" d="M34.9,32.3C43.2,37.8,51.2,43.7,59,49.9c3.8-3.6,7.6-7.2,11.6-10.7,3.9-3.4,7.9-6.7,12.1-9.9,2.1-1.6,4.2-3.1,6.4-4.6,1-.7,2-1.3,3-2L52.6,0,16.2,21c1.4.8,2.9,1.6,4.3,2.4C25.4,26.2,30.2,29.2,34.9,32.3Z" fill="#6853a2"/>
      </g>
    </g>
    <g id="Grupo_48" data-name="Grupo 48">
      <g id="Grupo_47" data-name="Grupo 47">
        <path id="Trazado_110" data-name="Trazado 110" d="M87.8,34.2c-2.9,4.4-5.9,8.6-9,12.8-3,4-6.1,7.8-9.3,11.6,6,5.2,11.9,10.5,17.6,16.1,4,4,7.9,8,11.7,12.2,1.6,1.8,3.1,3.5,4.6,5.3l1.9-1.1V30.4L94,23.9c-.7,1.2-1.4,2.4-2,3.6C90.6,29.8,89.2,32,87.8,34.2Z" fill="#ec1978"/>
      </g>
    </g>
    <g id="Grupo_50" data-name="Grupo 50">
      <g id="Grupo_49" data-name="Grupo 49">
        <path id="Trazado_111" data-name="Trazado 111" d="M79.9,83.4c-6.8-4.5-13.4-9.3-19.8-14.3-.5.5-.9,1-1.4,1.5A303.465,303.465,0,0,1,36.4,92.2c-3.9,3.4-7.9,6.7-12.1,9.9-.8.6-1.5,1.1-2.3,1.7l30.6,17.7L98.8,94.8c-1.5-.8-3-1.7-4.5-2.5C89.4,89.5,84.6,86.5,79.9,83.4Z" fill="#fbaf18"/>
      </g>
    </g>
  </g>
</svg>
